<svg width="147" height="64" viewBox="0 0 147 64" fill="none" xmlns="http://www.w3.org/2000/svg">
<g id="36" clip-path="url(#clip0_1_14068)">
<path id="Vector" fill-rule="evenodd" clip-rule="evenodd" d="M136.353 1.75296C136.414 1.32421 136.476 1.07921 136.537 0.834209C137.701 1.01796 138.252 1.44671 138.129 2.61046C138.068 3.46796 137.762 4.32546 137.456 5.12171C137.229 5.68857 136.933 6.20879 136.637 6.72556C136.455 7.04632 136.272 7.3658 136.108 7.69423C135.373 8.98048 134.393 10.083 132.984 10.6955C130.657 11.7367 128.452 10.573 127.962 8.12298C127.472 5.79546 127.778 3.65171 129.493 1.87546C131.698 -0.574542 133.903 -0.635791 136.353 1.75296ZM16.6707 8.30673C17.2832 4.99921 15.2619 2.48796 11.6482 2.48796C11.4644 2.48796 11.1582 2.48796 10.7907 2.54921C4.23692 3.71296 1.35817 9.04173 0.500671 14.248V14.3705C0.500671 15.6567 1.17442 16.2692 2.52192 16.453C2.82817 16.453 3.19567 16.5755 3.44067 16.7592C4.97192 18.0455 6.68692 18.0455 8.40192 17.3717C10.8519 16.453 12.9344 14.8605 14.5269 12.778C15.5069 11.4305 16.3644 9.96048 16.6707 8.30673ZM81.0518 2.94199C80.8607 2.95886 80.6445 2.97797 80.3707 2.97797C79.0232 2.85547 77.6144 3.28422 76.3282 4.26421C74.0619 5.85671 72.1632 7.87798 70.8769 10.328C70.5094 11.063 70.2032 11.8592 70.0807 12.6555C69.7744 14.493 70.9994 15.473 72.8369 14.983C73.0207 14.9329 73.2026 14.8795 73.3845 14.8262L73.3851 14.8261C74.5385 14.488 75.671 14.156 76.9407 14.738C77.4307 14.9217 78.1044 14.7992 78.6557 14.6155C79.3294 14.3705 80.0032 14.0642 80.6157 13.6355C83.4944 11.7367 84.3519 8.85798 84.3519 5.61172C84.3519 4.01922 83.1269 2.97796 81.4732 2.91671C81.3378 2.91671 81.2024 2.92865 81.0518 2.94199ZM40.9869 17.3105C40.9148 17.3345 40.8404 17.3585 40.7645 17.383C40.4536 17.4834 40.1186 17.5915 39.8232 17.7392C38.7207 18.2905 37.8632 17.8617 37.7407 16.6367C37.6794 16.208 37.7407 15.718 37.8632 15.3505C38.5369 12.8392 39.4557 10.3892 40.9257 8.24548C41.2319 7.75548 41.5994 7.26548 42.0282 6.89798C42.3957 6.53048 42.8857 6.16298 43.3144 5.97921C43.8657 5.79546 44.4782 5.61171 45.0294 5.67296C45.269 5.70292 45.5087 5.73124 45.7481 5.75954L45.7491 5.75965L45.7493 5.75968L45.7495 5.75971L45.7497 5.75973L45.75 5.75976C46.9783 5.90494 48.1997 6.04929 49.3782 6.40798C50.1132 6.59173 50.5419 7.44923 50.6644 8.24548C50.7257 8.85798 50.7869 9.53173 50.6644 10.1442C50.2357 12.8392 46.9282 16.453 44.1719 16.5755C43.9269 16.5755 43.6819 16.6844 43.4369 16.7932C43.3144 16.8477 43.1919 16.9021 43.0694 16.943C42.3957 17.188 41.7219 17.433 41.0482 17.6167C41.0482 17.5913 41.0376 17.5555 41.0253 17.5134C41.0079 17.454 40.9869 17.3822 40.9869 17.3105ZM98.4394 30.4792C99.4807 27.3555 98.0107 24.4155 94.8869 23.7417C94.2132 21.843 92.8657 21.353 91.3344 22.5167C90.6607 23.0067 90.1094 23.7417 89.6194 24.4767C87.9657 26.988 88.3332 29.7442 88.8232 32.4392C88.9457 33.1742 89.4969 33.6642 90.1707 33.9092C90.3544 33.9704 90.5382 34.0163 90.7219 34.0623V34.0624C90.9057 34.1083 91.0894 34.1542 91.2732 34.2155C94.5194 35.1342 97.3369 33.6642 98.4394 30.4792ZM14.4044 35.7467C14.4044 32.3167 16.6094 28.948 19.5494 27.6617C19.9782 27.478 20.3457 27.1717 20.7132 26.8042C22.4894 25.273 24.6331 25.8855 25.1844 28.213C25.3069 28.8867 25.3069 29.5605 25.1844 30.2342C24.6331 33.1742 23.1632 35.7467 21.0806 37.8905C20.6519 38.3192 20.1007 38.748 19.5494 39.0542C17.1607 40.3405 14.7107 39.0542 14.4044 36.298V35.7467ZM105.544 3.59046C103.401 4.14171 100.889 7.26548 100.951 9.83798C100.951 12.1042 102.359 13.6967 104.319 13.5742C105.054 13.5334 105.789 13.4381 106.524 13.3428C106.892 13.2952 107.259 13.2475 107.627 13.2067C107.912 13.2067 108.16 13.0964 108.399 12.9897C108.469 12.9587 108.538 12.928 108.607 12.9005C110.751 11.9205 112.833 8.49048 112.711 6.16298C112.649 4.26421 111.302 2.97796 109.403 3.03921C108.117 3.03921 106.831 3.28421 105.544 3.59046ZM61.0426 22.9128L61.0426 22.913C61.1496 23.4533 61.2607 24.0142 61.2607 24.538C61.2607 25.2117 61.3832 25.8242 61.7507 26.498C62.0569 27.0492 62.1794 27.723 62.2407 28.3355C62.3632 31.2755 59.3007 34.4605 56.2994 34.4605C54.2782 34.4605 52.5632 32.9905 52.1344 30.9692C51.5832 28.5192 52.9307 25.273 55.1357 23.9255C55.9932 23.3742 56.9119 23.1905 57.8307 23.8642C58.5657 24.4155 58.8107 24.293 59.3619 23.558L60.4644 22.2717C60.6482 22.3942 60.8319 22.4555 60.9544 22.4555C60.9817 22.6053 61.0119 22.7582 61.0426 22.9128ZM145.16 42.443C144.166 43.1371 143.238 43.7851 141.866 43.648C141.314 42.1167 140.396 41.2592 138.864 41.3817C138.619 41.3817 138.313 41.1367 138.129 40.953C137.333 40.1567 136.476 40.218 135.557 40.5855C132.862 41.7492 131.331 45.608 132.556 48.303C133.597 50.6305 136.231 51.4267 138.313 49.9567C138.864 49.5892 139.354 49.0992 139.783 48.548C140.396 47.813 141.008 47.323 141.988 47.0167C144.071 46.4042 145.541 44.9342 146.214 42.8517C146.253 42.6579 146.243 42.464 146.23 42.2235L146.23 42.2232C146.222 42.0838 146.214 41.9289 146.214 41.7492C145.842 41.9665 145.497 42.2074 145.16 42.443ZM80.9526 46.343L80.9532 46.3428C81.2129 46.2817 81.4732 46.2204 81.7182 46.1592C81.7182 46.0367 81.7182 45.9142 81.7794 45.7305C80.0644 44.628 78.1657 44.4442 76.2057 44.9955L76.1052 45.0206C75.4143 45.1947 74.8245 45.3433 74.1232 44.9342C73.2044 44.4442 72.2244 44.628 71.3057 45.1792C69.0394 46.4655 67.7532 50.018 68.7332 52.468C69.0394 53.3255 69.5907 53.9992 70.4482 54.1217C71.7957 54.3667 73.2044 54.3667 74.3682 53.448C75.8382 52.2842 76.9407 50.8142 77.0632 48.9155C77.1857 47.9355 77.6144 47.3842 78.4107 47.078C78.9619 46.8942 79.5744 46.7105 80.1869 46.5268V46.5267C80.4319 46.4655 80.6922 46.4042 80.9526 46.343ZM41.3824 54.9735L41.382 54.9733H41.382L41.3819 54.9732C41.0561 54.8361 40.7458 54.7056 40.4357 54.5505C40.0686 55.1316 39.7015 55.6975 39.3345 56.2633L39.3345 56.2634L39.3334 56.265L39.3332 56.2654C38.9657 56.832 38.5982 57.3985 38.2307 57.9805C37.5569 59.0217 36.6382 59.7567 35.2907 59.5117C33.9432 59.2667 32.9632 58.4092 32.7182 57.0005C32.5957 56.2042 32.5957 55.3467 32.7182 54.5505C33.0244 52.7742 33.8207 51.1817 35.1069 49.8955C36.9444 48.058 38.8432 48.1805 40.3744 50.2017C40.4969 50.3854 40.6806 50.5692 40.8644 50.7529L40.8644 50.753C42.5794 52.1617 42.7631 52.958 41.9669 55.2242C41.7649 55.1344 41.5711 55.0528 41.3824 54.9735ZM10.7194 54.8467C10.8008 54.6985 10.8876 54.5403 10.9744 54.3667C10.8902 54.2994 10.8014 54.232 10.7092 54.1621C10.466 53.9777 10.1996 53.7757 9.93311 53.5092C8.58561 52.0392 7.48311 51.7942 5.70688 52.713C3.56313 53.8767 2.09313 55.5305 1.66438 57.9805C1.48063 59.083 1.48063 60.1855 2.21563 61.1655C3.80813 63.2482 7.78936 63.1257 8.89186 60.6142C9.19811 59.8792 9.50436 59.083 9.74936 58.2867C9.8778 57.8372 9.97256 57.3709 10.069 56.8966C10.1565 56.466 10.2453 56.0289 10.3619 55.5917C10.441 55.3544 10.5712 55.1171 10.7194 54.8467ZM124.532 17.5555C126.002 17.9842 126.798 19.5155 126.369 20.8017C126.063 21.7817 125.818 22.7617 125.696 23.7417C125.389 25.9467 124.287 27.6005 122.449 28.703C120.734 29.7442 118.897 28.948 118.162 27.0492C117.733 25.8855 117.794 24.7217 118.162 23.6192C119.019 21.1692 120.734 19.4542 123.184 18.7192C123.919 18.5355 124.409 18.2905 124.532 17.5555ZM112.649 49.8342C113.446 47.8742 113.201 46.0979 111.486 44.4442C111.914 43.7092 111.976 42.9742 111.424 42.423C110.751 41.7492 109.954 41.7492 109.097 41.9942C108.852 42.0555 108.607 42.1779 108.423 42.3005C106.218 43.5255 104.809 46.4655 105.177 48.9155C105.422 50.753 106.647 52.0392 108.178 52.223C110.077 52.468 111.976 51.4267 112.649 49.8342Z" fill="#437EF7"/>
</g>
<defs>
<clipPath id="clip0_1_14068">
<rect width="145.775" height="63.0875" fill="white" transform="translate(0.500671 -0.000488281)"/>
</clipPath>
</defs>
</svg>
