<svg width="47" height="44" viewBox="0 0 47 44" fill="none" xmlns="http://www.w3.org/2000/svg">
<g id="83" clip-path="url(#clip0_1_14102)">
<path id="Vector" fill-rule="evenodd" clip-rule="evenodd" d="M2.30491 35.5643C5.06582 24.8881 9.59197 15.0903 17.1405 6.7965C9.11526 14.8529 4.67432 24.6929 2.30491 35.5643ZM0.280744 39.6792C0.516374 36.6445 1.31504 33.5275 2.19784 30.4263C4.15826 23.5375 7.21419 17.1583 11.4078 11.3103C14.3384 7.22341 17.7378 3.65904 22.3739 1.36075C23.8594 0.624376 25.1447 0.782323 26.4827 1.49398C27.233 1.89261 27.4751 3.06844 26.8283 3.31091C25.1876 3.92586 24.4377 5.39646 23.3591 6.53288C20.0883 9.97837 16.9311 13.5151 14.4076 17.5584C11.3434 22.4673 9.11563 27.7293 7.38642 33.2113C6.57467 35.785 5.7068 38.3433 5.09861 40.9761C5.01885 41.3221 4.52136 41.537 4.74024 42.0051C4.76355 42.0552 4.66048 42.1677 4.60731 42.2454C4.4376 42.4936 1.90758 42.9048 1.65155 42.7286C0.451913 41.903 0.234856 41.4521 0.280744 39.6792Z" fill="#437EF7"/>
<path id="Vector_2" fill-rule="evenodd" clip-rule="evenodd" d="M26.8485 16.7447L26.6449 16.5739C26.0931 17.2161 25.5413 17.8583 24.9894 18.5004C25.0468 18.5481 25.1037 18.5966 25.161 18.6447C25.7234 18.0113 26.2861 17.3782 26.8485 16.7447ZM23.9674 19.9811C21.8529 22.6459 19.9522 25.4482 18.8224 28.6963C20.2297 25.6136 22.0747 22.7896 23.9674 19.9811ZM31.4525 14.3447C31.8636 15.5429 31.1482 16.0628 30.4214 16.6807C29.735 17.2646 29.4851 18.2153 28.8319 18.8925C28.0269 19.7282 27.1874 20.6381 26.6449 21.5943C26.2296 22.3261 25.3904 22.6901 25.2057 23.6256C25.0573 24.377 24.6009 25.1389 23.8042 25.543C23.4711 25.7124 23.4791 26.0781 23.3553 26.3762C23.0379 27.141 22.8064 27.9749 21.9698 28.3992C21.8414 28.4647 21.6792 28.6474 21.6861 28.7668C21.7557 29.9169 20.7025 30.4668 20.3081 31.3672C20.1253 31.7844 19.704 31.9276 19.2433 31.9511C18.8445 31.9717 18.1621 32.1888 18.0993 32.0672C17.7572 31.3998 17.2471 30.839 17.4909 29.8774C18.3475 26.4942 20.0796 23.5804 22.0391 20.7643C24.0182 17.9208 26.3718 15.4083 28.9532 13.1074C29.952 12.2174 31.0429 11.4368 32.27 10.8695C33.145 10.4647 33.9643 10.7353 34.7752 11.0732C35.0846 11.202 35.2033 11.4682 35.1884 11.7888C35.1746 12.0883 34.9634 12.228 34.7233 12.3687C33.8674 12.8708 32.8345 13.1725 32.5841 14.3552C32.5322 14.5994 32.2711 14.8884 31.9514 14.8993C31.6445 14.9101 31.9202 14.4659 31.4525 14.3447Z" fill="#437EF7"/>
<path id="Vector_3" fill-rule="evenodd" clip-rule="evenodd" d="M38.5928 21.9042C39.2426 21.5643 39.7681 21.6139 40.0773 21.1979C40.2023 21.0297 40.5051 20.8362 40.242 20.5984C40.029 20.406 39.7427 20.4913 39.5575 20.697C39.2852 21.0001 39.046 21.3322 38.5928 21.9042ZM36.3634 24.0984C34.9162 25.5923 33.5757 27.1648 32.9087 29.1937C33.8917 27.3791 35.1549 25.7598 36.3634 24.0984ZM39.2612 24.0177C39.8427 24.5215 39.5857 24.7236 39.1901 25.2096C38.5774 25.9615 38.0166 26.8199 37.242 27.3398C36.2512 28.0047 36.0585 29.2241 35.1142 29.8764C34.3092 30.4324 33.116 30.3788 32.4573 29.8089C31.8864 29.3148 32.1907 28.8566 32.3604 28.4082C33.2544 26.0462 34.8618 24.1862 36.6765 22.4955C37.9887 21.2736 39.4839 20.2806 40.9512 19.2551C41.427 18.9223 41.5599 19.1366 41.6182 19.5954C41.6439 19.7989 41.5492 20.0596 41.8752 20.2278C42.0629 19.8943 42.2458 19.5733 42.4249 19.2501C42.4678 19.1726 42.5493 19.0705 42.5279 19.0098C42.2888 18.331 42.3863 18.1939 43.3092 18.0161C43.251 18.3464 42.847 18.4485 42.8599 18.7941C43.157 19.123 43.2635 18.2154 43.5941 18.6549C43.8737 19.0273 43.7629 19.6018 43.5795 19.7279C42.8918 20.1999 42.8346 21.0608 42.2698 21.5975C42.0975 21.761 42.416 22.3123 41.804 22.3102C41.4673 22.3095 41.2096 22.9797 40.7871 22.4444C40.9097 22.8519 40.4494 22.97 40.3857 23.1761C40.2081 23.747 39.7512 23.8302 39.2612 24.0177Z" fill="#437EF7"/>
<path id="Vector_4" fill-rule="evenodd" clip-rule="evenodd" d="M43.8939 17.5441C44.4819 17.659 44.9494 18.1352 45.1724 17.3466C45.2704 17.0009 45.5897 17.1961 45.7355 17.4262C45.9605 17.7822 46.252 18.1972 45.965 18.5754C45.6297 19.0179 45.2091 19.5646 44.7167 19.6894C44.3292 19.787 44.1042 19.1458 44.1492 18.6838C44.1838 18.3216 44.4088 17.9571 43.8939 17.5441Z" fill="#437EF7"/>
</g>
<defs>
<clipPath id="clip0_1_14102">
<rect width="45.9375" height="42.875" fill="white" transform="translate(0.276245 0.287109)"/>
</clipPath>
</defs>
</svg>
