<svg width="20" height="20" viewBox="0 0 20 20" fill="none" xmlns="http://www.w3.org/2000/svg">
<g id="Icon">
<g id="Icon_2">
<path d="M9.16665 0.870605C7.26102 1.04233 5.52355 1.79725 4.1341 2.95551L9.16665 7.98806V0.870605Z" fill="white"/>
<path d="M2.95559 4.13402C1.6305 5.7236 0.833313 7.76866 0.833313 9.9999C0.833313 12.2311 1.6305 14.2762 2.95559 15.8658L8.82147 9.9999L2.95559 4.13402Z" fill="white"/>
<path d="M4.1341 17.0443L10.3452 10.8332C10.6577 10.5207 10.8333 10.0968 10.8333 9.65473V0.870605C15.5054 1.29163 19.1666 5.2182 19.1666 9.9999C19.1666 15.0625 15.0626 19.1666 9.99998 19.1666C7.76873 19.1666 5.72368 18.3694 4.1341 17.0443Z" fill="white"/>
</g>
</g>
</svg>
