<svg width="41" height="42" viewBox="0 0 41 42" fill="none" xmlns="http://www.w3.org/2000/svg">
<g id="Logo">
<ellipse id="BG" cx="20.8709" cy="20.7841" rx="20.086" ry="20.496" fill="#303030"/>
<g id="Logo_2">
<g id="Group">
<path id="Vector" d="M12.2483 17.0329V21.5432C12.2483 22.724 14.0504 22.7288 14.0504 21.5432V17.0329C14.0504 15.8521 12.2483 15.8473 12.2483 17.0329Z" fill="white"/>
<path id="Vector_2" d="M27.1194 17.0329V21.5432C27.1194 22.724 28.9216 22.7288 28.9216 21.5432V17.0329C28.9216 15.8521 27.1194 15.8473 27.1194 17.0329Z" fill="white"/>
<path id="Vector_3" d="M15.9675 13.4272V25.027C15.9675 26.2078 17.7697 26.2126 17.7697 25.027V13.4272C17.7697 12.2464 15.9675 12.2416 15.9675 13.4272Z" fill="white"/>
<path id="Vector_4" d="M23.4006 13.4272V25.027C23.4006 26.2078 25.2028 26.2126 25.2028 25.027V13.4272C25.2028 12.2464 23.4006 12.2416 23.4006 13.4272Z" fill="white"/>
<path id="Vector_5" d="M19.6863 16.6069V28.2067C19.6863 29.3875 21.4884 29.3923 21.4884 28.2067V16.6069C21.4884 15.4261 19.6863 15.4213 19.6863 16.6069Z" fill="white"/>
</g>
</g>
</g>
</svg>
