<svg width="33" height="32" viewBox="0 0 33 32" fill="none" xmlns="http://www.w3.org/2000/svg">
<g id="Icon">
<g id="Icon_2">
<path d="M3.16669 12.2667C3.16669 10.7732 3.16669 10.0265 3.45734 9.45603C3.713 8.95426 4.12095 8.54631 4.62271 8.29065C5.19314 8 5.93988 8 7.43335 8H17.5667C19.0602 8 19.8069 8 20.3773 8.29065C20.8791 8.54631 21.287 8.95426 21.5427 9.45603C21.8334 10.0265 21.8334 10.7732 21.8334 12.2667V19.7333C21.8334 21.2268 21.8334 21.9735 21.5427 22.544C21.287 23.0457 20.8791 23.4537 20.3773 23.7094C19.8069 24 19.0602 24 17.5667 24H7.43335C5.93988 24 5.19314 24 4.62271 23.7094C4.12095 23.4537 3.713 23.0457 3.45734 22.544C3.16669 21.9735 3.16669 21.2268 3.16669 19.7333V12.2667Z" fill="#437EF7"/>
<path d="M28.5 15.253V16.747C28.5 18.7456 28.5 19.7449 28.0816 20.4009C27.7154 20.9751 27.1433 21.3874 26.4828 21.5532C25.7666 21.7331 24.8763 21.4576 23.1667 20.8888V11.1112C24.8763 10.5424 25.7666 10.2669 26.4828 10.4468C27.1433 10.6126 27.7154 11.0249 28.0816 11.5991C28.5 12.2551 28.5 13.2544 28.5 15.253Z" fill="#437EF7"/>
</g>
</g>
</svg>
