<svg width="33" height="32" viewBox="0 0 33 32" fill="none" xmlns="http://www.w3.org/2000/svg">
<g id="Icon">
<g id="Icon_2">
<path d="M4.50001 4C3.76363 4 3.16667 4.59695 3.16667 5.33333C3.16667 6.06971 3.76363 6.66667 4.50001 6.66667H5.99932L7.66981 19.1953C7.93477 21.1825 9.62991 22.6667 11.6347 22.6667H23.228C25.0565 22.6667 26.6522 21.4268 27.104 19.6551L28.9439 12.4403C29.5889 9.91116 27.678 7.45185 25.0679 7.45185H8.79427L8.64259 6.31423C8.46595 4.98941 7.33586 4 5.99932 4H4.50001Z" fill="#437EF7"/>
<path d="M7.16667 26.6667C7.16667 25.1939 8.36058 24 9.83334 24C11.3061 24 12.5 25.1939 12.5 26.6667C12.5 28.1394 11.3061 29.3333 9.83334 29.3333C8.36058 29.3333 7.16667 28.1394 7.16667 26.6667Z" fill="#437EF7"/>
<path d="M24.5 24C23.0272 24 21.8333 25.1939 21.8333 26.6667C21.8333 28.1394 23.0272 29.3333 24.5 29.3333C25.9728 29.3333 27.1667 28.1394 27.1667 26.6667C27.1667 25.1939 25.9728 24 24.5 24Z" fill="#437EF7"/>
</g>
</g>
</svg>
