<svg width="25" height="24" viewBox="0 0 25 24" fill="none" xmlns="http://www.w3.org/2000/svg">
<g id="Social platforms logo">
<g id="Logo">
<path id="Vector" d="M17.6002 8.66347C19.1435 9.77064 21.0342 10.4221 23.0762 10.4221V6.47861C22.6898 6.47869 22.3043 6.43825 21.9262 6.35786V9.46193C19.8843 9.46193 17.9939 8.81049 16.4502 7.7034V15.7509C16.4502 19.7766 13.1982 23.0399 9.18704 23.0399C7.69036 23.0399 6.29926 22.5858 5.14368 21.807C6.46259 23.1604 8.30191 24 10.3368 24C14.3483 24 17.6003 20.7367 17.6003 16.7108V8.66347H17.6002ZM19.0188 4.68499C18.2301 3.82023 17.7122 2.70267 17.6002 1.46717V0.959961H16.5104C16.7847 2.53028 17.7203 3.87187 19.0188 4.68499ZM7.68077 18.7178C7.24009 18.1379 7.00195 17.4286 7.00302 16.6992C7.00302 14.858 8.49042 13.3651 10.3255 13.3651C10.6675 13.365 11.0074 13.4176 11.3333 13.5214V9.48977C10.9525 9.43739 10.568 9.41515 10.1838 9.4233V12.5613C9.85765 12.4575 9.51755 12.4048 9.17547 12.4051C7.34041 12.4051 5.85309 13.8979 5.85309 15.7393C5.85309 17.0414 6.59655 18.1687 7.68077 18.7178Z" fill="white"/>
<path id="Vector_2" d="M16.4502 7.70332C17.9939 8.81041 19.8844 9.46185 21.9262 9.46185V6.35778C20.7865 6.11414 19.7775 5.5164 19.0188 4.68499C17.7203 3.87179 16.7847 2.5302 16.5104 0.959961H13.6478V16.7106C13.6413 18.5468 12.1564 20.0336 10.3253 20.0336C9.24628 20.0336 8.28765 19.5174 7.68053 18.7178C6.59639 18.1687 5.85294 17.0413 5.85294 15.7394C5.85294 13.8981 7.34026 12.4052 9.17532 12.4052C9.52691 12.4052 9.86578 12.4602 10.1837 12.5614V9.42338C6.24292 9.50509 3.07361 12.7365 3.07361 16.7107C3.07361 18.6946 3.86284 20.4931 5.14377 21.8071C6.29936 22.5858 7.69046 23.04 9.18713 23.04C13.1984 23.04 16.4503 19.7765 16.4503 15.7509V7.70332H16.4502Z" fill="white"/>
<path id="Vector_3" d="M21.9262 6.3578V5.51848C20.8985 5.52005 19.8909 5.23119 19.0189 4.68493C19.7908 5.53306 20.8072 6.11787 21.9262 6.3578ZM16.5104 0.959983C16.4842 0.809911 16.4641 0.658851 16.4502 0.507214V0H12.4977V15.7508C12.4914 17.5868 11.0066 19.0736 9.17534 19.0736C8.6377 19.0736 8.13009 18.9455 7.68055 18.7179C8.28767 19.5174 9.2463 20.0336 10.3253 20.0336C12.1563 20.0336 13.6414 18.5469 13.6478 16.7107V0.959983H16.5104ZM10.1838 9.42341V8.52989C9.85358 8.48459 9.52062 8.46186 9.18724 8.46202C5.17562 8.46194 1.92371 11.7254 1.92371 15.7508C1.92371 18.2745 3.20177 20.4987 5.14388 21.807C3.86294 20.493 3.07371 18.6944 3.07371 16.7106C3.07371 12.7365 6.24294 9.50511 10.1838 9.42341Z" fill="white"/>
</g>
</g>
</svg>
